# xmcd
#
# Track frame offsets:
# 150
# 20166
# 36374
# 51374
# 62337
# 75216
# 88692
# 101361
# 125253
# 142035
# 156607
# 178897
# 189980
# 202191
# 222815
# 237666
# 253964
#
# Disc length: 3611 seconds
#
#
# Revision: 0
# Processed by: cddbd v1.5.1PL0 Copyright (c) Steve Scherf et al.
# Submitted via: FreeRIP 2.51 
#
DISCID=fb0e1911
DTITLE=Simon Diaz - Duetos
DYEAR=2004
DGENRE=Llanera
TTITLE0=El Alcaraván - Ricardo Montaner
TTITLE1=Sabana - Luz Marina
TTITLE2=Cristal - Gualberto Ibarreto
TTITLE3=Despedida - Lila Morillo
TTITLE4=Barbacoas - Jesus Sevillanoç
TTITLE5=El cuatro y el interes - Betulio Medina
TTITLE6=Tonada de luna llena - Ilan Chester
TTITLE7=El bucerrito - Doris Hernández
TTITLE8=Tonada del nño campesino - Virgilio Tirado "Chusmita"
TTITLE9=El becerrito - Doris Hernández
TTITLE10=El niño jesus llanero - María Rivas
TTITLE11=Luna de Margarita - Sergio Perez
TTITLE12=Chichiriviche - Evio di Marzo
TTITLE13=La Pena del becerro - Frank Quintero
TTITLE14=Mi Caballito - Serenata Guayanesa
TTITLE15=Que vale mas - Wladimir Lozano
TTITLE16=Caballo Viejo - Yordano
EXTD=
EXTT0=
EXTT1=
EXTT2=
EXTT3=
EXTT4=
EXTT5=
EXTT6=
EXTT7=
EXTT8=
EXTT9=
EXTT10=
EXTT11=
EXTT12=
EXTT13=
EXTT14=
EXTT15=
EXTT16=
PLAYORDER=
